<?xml version="1.0" encoding="utf-8"?>
<!-- Generator: Adobe Illustrator 16.0.4, SVG Export Plug-In . SVG Version: 6.00 Build 0)  -->
<!DOCTYPE svg PUBLIC "-//W3C//DTD SVG 1.1//EN" "http://www.w3.org/Graphics/SVG/1.1/DTD/svg11.dtd">
<svg version="1.1" id="Layer_1" xmlns="http://www.w3.org/2000/svg" xmlns:xlink="http://www.w3.org/1999/xlink" x="0px" y="0px"
	 width="320px" height="320px" viewBox="0 0 320 320" enable-background="new 0 0 320 320" xml:space="preserve">
<g>
	<path fill-rule="evenodd" clip-rule="evenodd" fill="#ED1C24" d="M102.256,220.594c2.805-3.037,5.049-5.77,7.605-8.168
		c4.255-3.992,5.242-9.546,1.33-13.896c-3.032-3.369-7.045-5.858-10.635-8.723c-5.686-4.539-10.194-2.547-14.066,2.61
		c-4.141,5.515-8.719,10.777-12.223,16.674c-4.463,7.511-9.396,15.304-4.385,24.833c0.656-0.547,1.317-1.534,2.164-1.734
		c8.856-2.091,17.743-4.056,26.617-6.056c0.589,11.041,0.396,10.587-9.527,14.827c-10.184,4.35-19.962,9.655-29.861,14.652
		c-4.589,2.317-6.789,5.834-4.854,10.473c3.369,1.722,6.367,3.099,9.212,4.739c7.802,4.501,16.446,2.482,22.13-4.79
		c3.155-4.036,6.982-7.547,10.506-11.293c0.836,0.385,1.67,0.77,2.505,1.154c-1.719,11.66-3.436,23.318-5.154,34.977
		c-0.845,0.22-1.689,0.438-2.534,0.659c3.554,2.461,6.854,5.589,10.775,7.092c1.836,0.703,5.172-1.33,7.251-2.891
		c1.187-0.892,2.098-3.657,1.594-5.004c-1.383-3.701-3.382-7.222-5.495-10.588c-3.895-6.208-2.536-20.527,2.44-25.547
		c1.92-1.936,4.035-4.096,4.915-6.562c2.321-6.51,6.666-9.901,13.24-11.771c3.622-1.03,6.676-4.067,10.589-6.589
		c-7.835-6.318-12.914,1.74-19.058,0.549C116.219,221.979,109.028,222.642,102.256,220.594z M67.377,102.816
		c11.969,1.458,15.307-9.534,23.241-13.883c3.057-1.676,6.207-3.181,9.314-4.764c0.667,0.465,1.333,0.928,2,1.393
		c-5.702,11.354-11.403,22.707-17.46,34.765c4.356-0.81,6.887-1.167,9.356-1.772c2.634-0.644,5.798-0.818,7.714-2.417
		c9.07-7.571,17.983-15.358,26.571-23.47c5.884-5.556,6.468-15.177,2.108-22.028c-6.16-9.682-15.808-12.777-27.13-11.396
		c-14.647,1.787-26.651,7.933-37.391,17.569c-8.053,7.225-8.906,13.271-2.427,21.808L67.377,102.816z M114.33,48.691
		c-0.733-3.189-1.237-5.339-1.722-7.494c-3.527-15.725-15.555-20.483-28.751-11.357c-1.281,0.886-2.465,1.922-3.764,2.781
		c-12.619,8.338-13.561,15.565-3.734,26.329c3.012,3.299,5.641,3.849,9.801,1.896c8.14-3.822,14.95-11.525,25.432-9.234
		C112.349,51.777,113.647,49.452,114.33,48.691z M127.164,137.98c-22.547,13.542-44.155,26.399-65.533,39.627
		c-1.449,0.896-2.002,4.789-1.47,6.911c0.534,2.127,2.919,3.812,4.548,5.64c5.641,6.325,12.982,5.325,17.278-2.075
		c1.878-3.233,4.171-6.306,6.692-9.071c5.618-6.161,10.995-12.695,17.393-17.954c9.161-7.529,19.192-13.992,28.729-21.076
		c1.424-1.058,2.175-3.023,3.471-4.908C128.68,133.229,126.643,134.143,127.164,137.98z M92.405,156.665
		c3.221-3.736,6.004-6.092,7.499-9.09c0.689-1.382-0.91-4.136-1.871-6.069c-3.567-7.177-8.181-13.773-16.367-15.649
		c-3.336-0.765-8.197,0.342-10.696,2.516c-1.489,1.296-0.255,6.479,0.718,9.616c0.822,2.652,2.587,5.412,4.719,7.178
		C81.063,149.028,86.22,152.289,92.405,156.665z"/>
</g>
<path fill="#ED1C24" d="M251.083,236.057c2.951,0.939,5.258,1.34,7.197,2.408c1.27,0.697,2.59,2.281,2.773,3.621
	c0.119,0.861-1.605,2.42-2.814,2.928c-2.27,0.955-4.775,1.332-7.16,2.029c-1.707,0.498-3.377,1.123-5.063,1.691
	c0.035,0.432,0.07,0.863,0.105,1.295c1.425,0,2.86,0.107,4.274-0.025c2.135-0.199,4.301-0.971,6.365-0.73
	c1.655,0.191,3.179,1.525,4.76,2.352c-1.209,1.436-2.156,3.605-3.684,4.15c-2.918,1.039-6.175,1.107-9.273,1.674
	c-1.615,0.297-3.463,0.426-4.703,1.322c-0.975,0.707-1.609,2.498-1.547,3.764c0.031,0.637,1.899,1.461,3.038,1.688
	c1.263,0.25,2.835-0.535,3.923-0.062c1.605,0.697,3.981,2.041,4.053,3.229c0.088,1.449-1.916,4.367-2.937,4.332
	c-8.97-0.303-16.515,4.459-24.796,6.336c-7.646,1.732-15.892-3.203-15.977-11.586c-0.041-4.117-0.978-8.217-1.312-12.342
	c-0.196-2.432-0.532-4.311-3.685-3.938c-2.637,0.311-5.202,0.59-4.82,4.184c0.297,2.807,0.566,5.65,1.264,8.371
	c0.979,3.814-0.337,5.727-4.145,6.234c-1.646,0.219-3.332,0.449-4.887,0.998c-3.65,1.287-6.418,3.307-6.613,7.764
	c-0.187,4.273-1.152,8.785-5.656,10.27c-4.682,1.541-9.59,0.959-13.703-2.393c-9.572-7.801-13.802-17.102-12.426-30.131
	c1.531-14.494,0.506-29.271,0.361-43.924c-0.049-4.932-1.562-9.938-1.033-14.76c0.559-5.111,2.161-10.332,4.434-14.951
	c1.561-3.174,5.283-3.629,8.792-1.691c5.554,3.068,9.054,7.838,11.134,13.617c1.169,3.248,2.865,3.979,6.041,3.016
	c4.264-1.295,8.338-1.121,12.494,1.248c3.987,2.273,8.559-0.518,8.113-4.508c-0.408-3.654-2.061-5.363-6.135-3.965
	c-1.516,0.521-3.521-0.381-5.303-0.633c0.699-1.699,1.067-3.664,2.17-5.039c2.066-2.578,4.532-4.84,6.88-7.188
	c4.88-4.875,8.996-5.5,15.421-3.307c1.727,0.59,4.498,0.002,6.035-1.1c4.453-3.195,8.447-7.023,12.766-10.418
	c4.562-3.587,8.438-3.466,13.356-0.656c5.864,3.352,11.386,6.93,13.141,13.971c0.466,1.871,0.882,5.051-0.081,5.779
	c-7.81,5.912-5.227,14.02-5.1,21.613c0.041,2.488,0.235,4.982,0.478,7.461c0.443,4.537-1.21,6.865-6.11,6.863
	c-1.256,0-3.658,2.033-3.533,2.805c0.273,1.66,1.577,3.457,2.975,4.527c1.03,0.789,3.156,0.078,4.292,0.814
	c1.735,1.123,4.097,2.834,4.222,4.449c0.122,1.578-2.019,3.578-3.561,4.951C254.901,235.338,253.2,235.4,251.083,236.057z
	 M182.284,263.689c4.48-1.631,5.801-4.551,5.633-8.043c-0.182-3.771-0.701-7.559-1.488-11.25c-0.274-1.289-1.787-2.314-2.734-3.461
	c-1.199,1.146-3.254,2.16-3.455,3.459C179.253,250.779,179.629,257.125,182.284,263.689z M235.823,186.975
	c0.381-7.865-1.024-8.947-9.75-8.262c-2.154,0.17-5.093-0.545-4.898,3.244c0.163,3.154,1.777,4.951,5.018,5.006
	C229.317,187.016,232.446,186.975,235.823,186.975z M217.312,245.977c0.286,0.727,0.571,1.453,0.856,2.18
	c4.32-1.475,8.64-2.951,12.959-4.426c-0.199-0.572-0.397-1.146-0.597-1.719C226.125,243.334,221.719,244.654,217.312,245.977z
	 M221.228,263.695c-0.002,0.732-0.004,1.467-0.006,2.199c2.275,0.105,4.561,0.365,6.819,0.215c0.636-0.043,1.193-1.283,1.786-1.977
	c-0.843-0.566-1.716-1.646-2.524-1.602C225.263,262.648,223.251,263.273,221.228,263.695z M187.278,224.539
	c-0.852-0.141-1.701-0.279-2.553-0.418c-0.471,2.271-0.943,4.545-1.414,6.818c1.051-0.027,2.947,0.162,3.018-0.115
	C186.851,228.781,187.007,226.645,187.278,224.539z M227.39,199.604c-0.399-0.986-0.799-1.971-1.198-2.957
	c-2.021,0.955-4.08,1.842-6.003,2.963c-0.2,0.115,0.406,1.615,0.639,2.473C223.015,201.256,225.202,200.43,227.39,199.604z
	 M201.272,207.34c-0.271-0.617-0.543-1.234-0.814-1.85c-1.702,0.545-3.609,0.797-5.008,1.775c-0.586,0.41-0.098,2.357-0.098,5.078
	C198.187,209.949,199.729,208.645,201.272,207.34z M184.63,218.65c0.693-0.15,1.389-0.301,2.082-0.451
	c-0.57-2.854-1.143-5.707-1.715-8.559c-0.658,0.135-1.315,0.271-1.974,0.408C183.559,212.916,184.094,215.783,184.63,218.65z
	 M239.993,190.105c-0.692,0.111-1.384,0.225-2.075,0.336c0.232,1.965,0.465,3.93,0.697,5.896c0.873-0.238,2.52-0.578,2.503-0.695
	C240.869,193.779,240.406,191.945,239.993,190.105z"/>
<path fill="#ED1C24" d="M215.205,68.402c3.77-6.36,7.728-12.621,11.233-19.125c1.859-3.448,3.13-7.12,7.852-7.302
	c5.047-0.194,8.994,1.439,11.589,6.149c2.241,4.068,4.923,7.899,7.49,11.781c4.607,6.968,3.202,11.856-4.505,14.899
	c-5.416,2.138-10.951,3.978-16.364,6.123c-5.022,1.989-5.804,3.961-2.04,7.515c11.209,10.586,22.783,20.786,34.23,31.119
	c0.861,0.777,2.02,1.28,2.722,2.163c0.647,0.813,1.417,2.19,1.126,2.912c-0.321,0.796-1.744,1.465-2.768,1.606
	c-7.482,1.036-14.988,1.901-22.48,2.866c-8.823,1.136-11.812-0.639-16.113-8.375c-3.065-5.514-6.006-10.907-7.205-17.254
	c-0.54-2.86-2.783-5.399-4.254-8.084c-0.592,0.059-1.184,0.117-1.776,0.176c-0.382,2.089-0.995,4.167-1.106,6.271
	c-0.478,8.974-0.727,17.96-1.215,26.934c-0.469,8.657-3.825,13.219-12.146,15.573c-2.205,0.624-5.297-0.071-7.373-1.24
	c-2.992-1.686-5.637-4.165-8.005-6.701c-1.012-1.083-1.413-3.209-1.264-4.783c0.179-1.881,1.243-3.678,1.925-5.512
	c6.459-0.516,7.504-1.461,7.179-8.119c-0.181-3.726-1.188-7.41-2.022-12.271c-1.875,1.567-3.135,2.153-3.662,3.133
	c-4.911,9.133-10.153,17.896-19.122,23.86c-2.247,1.494-3.538,4.373-5.426,6.474c-2.479,2.759-5.38,4.815-9.15,2.439
	c-2.843-1.791-3.11-6.691-0.608-10.416c3.418-5.088,7.166-9.96,10.467-15.119c1.594-2.49,2.604-5.382,3.674-8.17
	c1.113-2.898,0.256-4.536-3.092-5.255c-12.74-2.733-20.729-10.579-24.141-23.155c-1.791-6.602,0.541-10.474,7.295-11.255
	c10.367-1.199,20.757-2.2,31.145-3.2c6.205-0.598,6.889-1.774,4.617-7.423c-1.92-4.774-3.764-9.613-5.142-14.562
	c-1.478-5.31,0.65-8.917,6.019-10.105c3.824-0.847,7.895-1.395,11.764-1.051c7.418,0.657,11.402,4.414,13.052,11.724
	c1.241,5.503,1.927,11.13,3.065,16.659c0.547,2.647,1.572,5.196,2.38,7.789C213.767,68.194,214.485,68.298,215.205,68.402z"/>
</svg>
